<?xml version="1.0" standalone="no"?>
<!DOCTYPE svg PUBLIC "-//W3C//DTD SVG 20010904//EN"
 "http://www.w3.org/TR/2001/REC-SVG-20010904/DTD/svg10.dtd">
<svg version="1.0" xmlns="http://www.w3.org/2000/svg"
 width="263.000000pt" height="263.000000pt" viewBox="0 0 263.000000 263.000000"
 preserveAspectRatio="xMidYMid meet">
<metadata>
Created by potrace 1.11, written by Peter Selinger 2001-2013
</metadata>
<g transform="translate(0.000000,263.000000) scale(0.100000,-0.100000)"
fill="#000000" stroke="none">
<path d="M1110 2164 c-110 -224 -203 -410 -205 -412 -5 -5 -153 -28 -605 -93
-162 -23 -297 -44 -300 -46 -3 -3 143 -150 323 -326 l329 -322 -62 -360 c-33
-198 -68 -395 -76 -439 -18 -102 -18 -107 4 -98 10 4 193 99 406 211 l389 204
61 -30 c33 -17 216 -112 405 -212 189 -100 346 -179 349 -177 2 3 -30 207 -72
453 l-77 448 328 321 c180 177 326 324 323 327 -3 2 -198 32 -435 66 -236 34
-439 63 -450 66 -16 3 -68 100 -220 410 -109 224 -203 409 -207 411 -5 3 -98
-178 -208 -402z m469 -648 c14 -3 44 -8 66 -11 22 -3 129 -19 238 -35 109 -15
201 -30 203 -32 2 -3 -82 -90 -187 -194 -187 -185 -190 -190 -185 -224 3 -19
24 -138 46 -265 21 -126 38 -230 36 -232 -1 -1 -109 53 -239 122 -131 69 -239
125 -241 125 -2 0 -111 -56 -242 -125 -131 -69 -239 -124 -240 -122 -1 1 30
194 60 367 31 178 31 172 10 187 -31 22 -364 356 -360 361 2 2 111 19 241 38
130 19 246 36 258 38 12 3 25 5 28 5 3 1 59 111 125 245 l119 245 119 -244
c104 -214 122 -245 145 -249z"/>
</g>
</svg>
